<?xml version="1.0" encoding="UTF-8"?>
<svg width="142px" height="60px" viewBox="0 0 142 60" version="1.1" xmlns="http://www.w3.org/2000/svg" xmlns:xlink="http://www.w3.org/1999/xlink">
    <title>ResponsiveAyaLogo-LG</title>
    <defs>
        <linearGradient x1="56.1426027%" y1="42.7841298%" x2="40.7475152%" y2="107.966598%" id="linearGradient-1">
            <stop stop-color="#F15E22" offset="20.4%"></stop>
            <stop stop-color="#EF4136" offset="73.2%"></stop>
        </linearGradient>
        <linearGradient x1="27.5671886%" y1="24.4930896%" x2="58.1594704%" y2="53.2951072%" id="linearGradient-2">
            <stop stop-color="#FCA800" offset="0%"></stop>
            <stop stop-color="#F15E22" offset="79.6%"></stop>
        </linearGradient>
        <linearGradient x1="50.94927%" y1="49.99962%" x2="3.8102337%" y2="49.99962%" id="linearGradient-3">
            <stop stop-color="#00B9DA" offset="0%"></stop>
            <stop stop-color="#1BB7C3" offset="6.1%"></stop>
            <stop stop-color="#56B390" offset="20.8%"></stop>
            <stop stop-color="#89B064" offset="35.4%"></stop>
            <stop stop-color="#B2AD40" offset="49.6%"></stop>
            <stop stop-color="#D2AB24" offset="63.4%"></stop>
            <stop stop-color="#E9A910" offset="76.7%"></stop>
            <stop stop-color="#F7A804" offset="89.1%"></stop>
            <stop stop-color="#FCA800" offset="100%"></stop>
        </linearGradient>
        <linearGradient x1="176.380963%" y1="50.0068672%" x2="34.2062268%" y2="50.0068672%" id="linearGradient-4">
            <stop stop-color="#00BEDD" offset="0%"></stop>
            <stop stop-color="#10BDCF" offset="3.7%"></stop>
            <stop stop-color="#4EB799" offset="19.2%"></stop>
            <stop stop-color="#83B36A" offset="34.5%"></stop>
            <stop stop-color="#AEAF44" offset="49.4%"></stop>
            <stop stop-color="#D0AC26" offset="63.6%"></stop>
            <stop stop-color="#E8AA11" offset="77.2%"></stop>
            <stop stop-color="#F7A804" offset="89.6%"></stop>
            <stop stop-color="#FCA800" offset="100%"></stop>
        </linearGradient>
        <linearGradient x1="65.7785699%" y1="17.5747888%" x2="30.3410437%" y2="110.427038%" id="linearGradient-5">
            <stop stop-color="#00B9DA" offset="0%"></stop>
            <stop stop-color="#00B7D4" offset="9%"></stop>
            <stop stop-color="#00B3C2" offset="21.5%"></stop>
            <stop stop-color="#00ACA4" offset="36.1%"></stop>
            <stop stop-color="#00A27B" offset="52.3%"></stop>
            <stop stop-color="#009547" offset="69.5%"></stop>
            <stop stop-color="#009444" offset="70.3%"></stop>
            <stop stop-color="#FCB514" offset="100%"></stop>
        </linearGradient>
        <linearGradient x1="88.0413292%" y1="-32.3242516%" x2="23.1993254%" y2="106.004036%" id="linearGradient-6">
            <stop stop-color="#F15E22" offset="20.4%"></stop>
            <stop stop-color="#FCB514" offset="98%"></stop>
        </linearGradient>
        <linearGradient x1="63.1964839%" y1="59.9464712%" x2="26.3584984%" y2="34.9391982%" id="linearGradient-7">
            <stop stop-color="#F15E22" offset="20.4%"></stop>
            <stop stop-color="#FCB514" offset="98%"></stop>
        </linearGradient>
        <linearGradient x1="50%" y1="64.7585696%" x2="50%" y2="18.378342%" id="linearGradient-8">
            <stop stop-color="#F15E22" offset="0%"></stop>
            <stop stop-color="#EF0B06" offset="100%"></stop>
        </linearGradient>
    </defs>
    <g id="DS---Foundations-✓" stroke="none" stroke-width="1" fill="none" fill-rule="evenodd">
        <g id="Branding/AyaLogo/Primary/Full-Color" transform="translate(-32.000000, -16.000000)" fill-rule="nonzero">
            <g id="ResponsiveAyaLogo-LG" transform="translate(32.000000, 16.000000)">
                <path d="M59.7544464,13.9114525 L51.1730951,35.8253497 L41.4266961,13.9114525 L35.539455,13.9114525 L48.3649801,42.6256281 L46.6719108,47.0258083 C46.1192238,48.5566403 45.3820971,50.0144385 44.4768209,51.366986 C43.8532007,52.2787123 42.9872944,52.9981073 41.9767186,53.444071 C40.7885232,53.8778577 39.5276767,54.0778681 38.2635666,54.0330951 L35.9634724,54.0330951 L36.2934859,59.0563008 L38.6495824,59.0563008 C40.6509051,59.1214382 42.6441597,58.7731719 44.5048221,58.0332589 C46.1239368,57.2939631 47.5167836,56.1365367 48.5399873,54.6801216 C49.9152006,52.6841367 51.0437858,50.529046 51.9011249,48.2618589 L65.582685,13.9114525 L59.7544464,13.9114525 Z" id="Path" fill="#01383F"></path>
                <polygon id="Path" fill="#01383F" points="64.8836564 52.3020243 60.159463 52.3020243 60.159463 47.9218449 58.1953826 47.9218449 58.1953826 58.8342917 60.159463 58.8342917 60.159463 54.1420996 64.8836564 54.1420996 64.8836564 58.8342917 66.8477368 58.8342917 66.8477368 47.9218449 64.8836564 47.9218449"></polygon>
                <path d="M75.2840822,51.2739822 C73.9257642,50.5648502 72.305925,50.5674664 70.9499048,51.2809825 C70.3204087,51.6272051 69.8006898,52.1431127 69.4498434,52.7700434 C69.086688,53.4227313 68.9011688,54.1592911 68.9118213,54.9061309 C68.9023492,55.6487733 69.0908142,56.3805422 69.4578437,57.0262177 C69.8139728,57.6529717 70.3375341,58.1682225 70.9699056,58.5142786 C71.6490721,58.881859 72.4118823,59.0672212 73.1839962,59.0523006 C74.0616666,59.0806409 74.9268154,58.8383434 75.6620977,58.3582722 C76.3361674,57.8983719 76.853071,57.2429061 77.1431583,56.4801953 L75.2100792,56.4801953 C75.0144398,56.8025493 74.7305693,57.0621277 74.3920457,57.2282259 C74.0220623,57.3930477 73.6198901,57.4730038 73.2149975,57.4622355 C72.7650005,57.4754157 72.3192352,57.3720698 71.9209445,57.1622232 C71.5553352,56.9585702 71.2573894,56.6522805 71.0639094,56.2811872 C70.9329942,56.0308914 70.8447784,55.760498 70.8028988,55.4811544 L77.2831641,55.4811544 C77.2941645,55.4091515 77.3041649,55.3181477 77.3141653,55.2091433 C77.3251274,55.0974777 77.3304677,54.9853315 77.330166,54.8731295 C77.341784,54.1290327 77.1561516,53.3951291 76.792144,52.7460424 C76.4385932,52.1227601 75.9157236,51.6123728 75.2840822,51.2739822 Z M71.0519089,53.5500754 C71.2432715,53.1752157 71.5378715,52.8629188 71.9009437,52.6500385 C72.276078,52.4371897 72.701782,52.3297271 73.1329941,52.3390258 C73.5446081,52.3285124 73.9522159,52.422073 74.3180427,52.6110369 C74.6480759,52.791285 74.9226271,53.058229 75.1120752,53.3830685 C75.2459281,53.6159284 75.3424376,53.8683379 75.3980869,54.1310991 L70.8409003,54.1310991 C70.886507,53.929317 70.9574037,53.7340992 71.0519089,53.5500754 L71.0519089,53.5500754 Z" id="Shape" fill="#01383F"></path>
                <path d="M82.4413752,50.7439605 C81.5772674,50.7065567 80.7250284,50.9558296 80.017276,51.4529895 C79.3911992,51.9208524 78.9784798,52.6198822 78.8712291,53.394069 L80.8043082,53.394069 C80.8631784,53.0710367 81.0518411,52.7862355 81.3263296,52.6060367 C81.652335,52.4138544 82.0273651,52.3210526 82.4053738,52.3390258 C82.8423469,52.3089299 83.2727383,52.4580504 83.5974226,52.7520427 C83.8928118,53.0822947 84.0418161,53.518123 84.0104395,53.9600921 L84.0104395,54.2401036 L81.6723438,54.2401036 C80.8744246,54.1920685 80.0843401,54.420582 79.4352522,54.8871301 C78.9000452,55.3212014 78.6030598,55.98385 78.6352194,56.6722032 C78.6058718,57.3460939 78.8978953,57.993963 79.4222516,58.4182747 C80.0357071,58.8722981 80.7882454,59.0982718 81.5503388,59.0573008 C82.1097062,59.0639713 82.6636248,58.9468356 83.1724052,58.7142868 C83.5822469,58.5197105 83.9465033,58.2409811 84.2414489,57.8962533 L84.51246,58.8392919 L85.8845162,58.8392919 L85.8845162,53.9860932 C85.932829,53.0984668 85.5977822,52.2328077 84.9644785,51.6089959 C84.2685506,51.0024476 83.3630679,50.6920066 82.4413752,50.7439605 Z M83.0183989,57.2362263 C82.6499739,57.3962796 82.2508838,57.4734347 81.849351,57.4622355 C81.5085617,57.4859526 81.1692641,57.3985844 80.8823114,57.2132253 C80.6760921,57.0391734 80.5571077,56.7830494 80.5571077,56.5131967 C80.5571077,56.2433439 80.6760921,55.98722 80.8823114,55.813168 C81.1691151,55.6273911 81.5084442,55.5396638 81.849351,55.5631578 L84.0154397,55.5631578 L84.0154397,55.6731623 C84.0350632,56.3509443 83.6385424,56.971896 83.0153987,57.2392264 L83.0183989,57.2362263 Z" id="Shape" fill="#01383F"></path>
                <rect id="Rectangle" fill="#01383F" x="88.0586052" y="47.4078239" width="1.85507595" height="11.4264678"></rect>
                <path d="M95.1638961,56.7452062 C94.8897718,56.4444062 94.751602,56.0440031 94.7818805,55.6381609 L94.7818805,52.6300377 L97.3819869,52.6300377 L97.3819869,50.9619694 L94.7818805,50.9619694 L94.7818805,48.9508871 L93.207816,48.9508871 L92.9558057,50.9619694 L91.3217388,50.9619694 L91.3217388,52.6300377 L92.9118039,52.6300377 L92.9118039,55.6851628 C92.8526149,56.5404805 93.1410712,57.3834941 93.7118367,58.0232585 C94.3401335,58.5988545 95.1767887,58.8919549 96.0269315,58.8342917 L97.3989876,58.8342917 L97.3989876,57.1192215 L96.2769417,57.1192215 C95.8709785,57.1473163 95.4705164,57.0127496 95.1638961,56.7452062 L95.1638961,56.7452062 Z" id="Path" fill="#01383F"></path>
                <path d="M105.106303,51.1639777 C104.601375,50.8757732 104.027471,50.7305687 103.446235,50.7439605 C102.832526,50.7344658 102.22561,50.8734148 101.677163,51.1489771 C101.358599,51.3139781 101.071008,51.5328863 100.827128,51.7960035 L100.827128,47.4078239 L98.972052,47.4078239 L98.972052,58.8392919 L100.827128,58.8392919 L100.827128,54.9391322 C100.817115,54.4873491 100.910496,54.0392539 101.100139,53.6290786 C101.263263,53.2761838 101.52251,52.9763861 101.84817,52.7640432 C102.172567,52.5605501 102.549353,52.4562736 102.932214,52.4640309 C103.432443,52.4343197 103.91935,52.6320225 104.257268,53.0020529 C104.601767,53.466511 104.767547,54.0394657 104.724288,54.616119 L104.724288,58.8392919 L106.595364,58.8392919 L106.595364,54.2511041 C106.613975,53.600621 106.480423,52.9547796 106.205348,52.3650268 C105.964395,51.8657738 105.582267,51.4481799 105.106303,51.1639777 Z" id="Path" fill="#01383F"></path>
                <path d="M111.335558,52.7620431 C111.69842,52.5468782 112.1138,52.4364561 112.535607,52.44303 C113.032275,52.4296149 113.521053,52.5692658 113.935665,52.8430464 C114.331202,53.1169164 114.624571,53.5144069 114.769699,53.9730927 L116.655776,53.9730927 C116.522815,53.3548445 116.253599,52.7740474 115.867744,52.2730231 C115.489172,51.7852982 114.997241,51.397383 114.434685,51.1429768 C113.125084,50.5703454 111.627014,50.6192154 110.357518,51.2759823 C109.723016,51.6191638 109.198745,52.1351129 108.845456,52.7640432 C108.477924,53.4181869 108.289895,54.1578825 108.300434,54.908131 C108.288894,55.6539943 108.475964,56.3895038 108.842456,57.0392182 C109.197443,57.6650655 109.721452,58.1783316 110.354518,58.5202788 C111.025184,58.8800319 111.776643,59.0624747 112.537607,59.0503005 C113.190765,59.0585195 113.837628,58.9219063 114.431685,58.6502842 C114.989484,58.3913029 115.478133,58.0040843 115.857743,57.5202379 C116.245171,57.0252838 116.51683,56.4498449 116.652776,55.836169 L114.766699,55.836169 C114.619621,56.2960719 114.323295,56.6937528 113.924664,56.9662152 C113.515831,57.2279539 113.037879,57.3610279 112.552608,57.3482309 C112.128834,57.3557016 111.710862,57.2489633 111.342558,57.0392182 C110.984421,56.8321114 110.690569,56.5299528 110.493524,56.1661825 C110.077448,55.3759007 110.077448,54.4313609 110.493524,53.6410791 C110.691003,53.2783756 110.981677,52.9749282 111.335558,52.7620431 L111.335558,52.7620431 Z" id="Path" fill="#01383F"></path>
                <path d="M121.836988,50.7439605 C120.97257,50.7065603 120.120015,50.9558227 119.411889,51.4529895 C118.786442,51.9212637 118.374166,52.6201528 118.266842,53.394069 L120.199921,53.394069 C120.258791,53.0710367 120.447454,52.7862355 120.721942,52.6060367 C121.049034,52.4129294 121.425618,52.3200875 121.804987,52.3390258 C122.242283,52.3087698 122.673044,52.4578935 122.998036,52.7520427 C123.293425,53.0822947 123.442429,53.518123 123.411053,53.9600921 L123.411053,54.2401036 L121.072957,54.2401036 C120.275038,54.1920685 119.484953,54.420582 118.835865,54.8871301 C118.300658,55.3212014 118.003673,55.98385 118.035833,56.6722032 C118.006485,57.3460939 118.298508,57.993963 118.822865,58.4182747 C119.436244,58.8724501 120.188838,59.0984406 120.950952,59.0573008 C121.510009,59.0640884 122.063627,58.9469439 122.572018,58.7142868 C122.982157,58.519727 123.346744,58.2410056 123.642062,57.8962533 L123.913073,58.8392919 L125.285129,58.8392919 L125.285129,53.9860932 C125.333442,53.0984668 124.998395,52.2328077 124.365092,51.6089959 C123.667792,51.0013938 122.760347,50.6908952 121.836988,50.7439605 L121.836988,50.7439605 Z M122.413012,57.2362263 C122.044645,57.3964679 121.645513,57.4736312 121.243964,57.4622355 C120.903496,57.4858785 120.564539,57.3985076 120.277924,57.2132253 C120.071069,57.0395547 119.951615,56.7832901 119.951615,56.5131967 C119.951615,56.2431033 120.071069,55.9868387 120.277924,55.813168 C120.564419,55.6275348 120.903385,55.5398106 121.243964,55.5631578 L123.411053,55.5631578 L123.411053,55.6731623 C123.430958,56.3510222 123.034344,56.9721188 122.411012,57.2392264 L122.413012,57.2362263 Z" id="Shape" fill="#01383F"></path>
                <path d="M129.367296,51.757002 C129.288474,51.8320551 129.214331,51.911875 129.145287,51.9960117 L128.821274,50.9619694 L127.450218,50.9619694 L127.450218,58.8392919 L129.305294,58.8392919 L129.305294,54.9891343 C129.26177,54.3929756 129.445402,53.8024234 129.819315,53.3360666 C130.222241,52.9369103 130.777582,52.7306617 131.343377,52.7700434 L132.371419,52.7700434 L132.371419,50.9619694 L131.561386,50.9619694 C130.753886,50.9278487 129.965502,51.2135211 129.367296,51.757002 L129.367296,51.757002 Z" id="Path" fill="#01383F"></path>
                <path d="M140.832766,52.7470425 C140.481528,52.1244915 139.961532,51.613855 139.332704,51.2739822 C137.974386,50.5648502 136.354547,50.5674664 134.998527,51.2809825 C134.369225,51.6274646 133.84957,52.1433088 133.498466,52.7700434 C133.134871,53.4225571 132.949322,54.1592363 132.960444,54.9061309 C132.950971,55.6487733 133.139436,56.3805422 133.506466,57.0262177 C133.862299,57.6531991 134.385934,58.1685222 135.018528,58.5142786 C135.697382,58.8817338 136.459837,59.0670935 137.231618,59.0523006 C138.109619,59.0807825 138.975128,58.8384818 139.71072,58.3582722 C140.384392,57.8979455 140.901186,57.2426184 141.191781,56.4801953 L139.258701,56.4801953 C139.063062,56.8025493 138.779192,57.0621277 138.440668,57.2282259 C138.070654,57.3929506 137.668504,57.4729022 137.26362,57.4622355 C136.813636,57.4752795 136.367905,57.3719415 135.969567,57.1622232 C135.603874,56.9583504 135.305662,56.6521436 135.111532,56.2811872 C134.980946,56.0308363 134.893068,55.7604427 134.851521,55.4811544 L141.331786,55.4811544 C141.341787,55.4091515 141.352787,55.3181477 141.362788,55.2091433 C141.37375,55.0974777 141.379096,54.9853315 141.378788,54.8731295 C141.38779,54.1286427 141.199391,53.3950605 140.832766,52.7470425 L140.832766,52.7470425 Z M135.096531,53.5470752 C135.287617,53.1720203 135.582283,52.8596536 135.945566,52.6470384 C136.320996,52.4352354 136.746682,52.3288138 137.177616,52.3390258 C137.588924,52.3283778 137.996242,52.4219507 138.361665,52.6110369 C138.693753,52.7906132 138.970409,53.0575864 139.161697,53.3830685 C139.295217,53.6159817 139.391389,53.8683908 139.446709,54.1310991 L134.886522,54.1310991 C134.932293,53.9295041 135.002832,53.734347 135.096531,53.5500754 L135.096531,53.5470752 Z" id="Shape" fill="#01383F"></path>
                <path d="M91.8077587,37.3794133 C90.6447111,37.3794133 90.0196855,36.9003937 89.9206815,35.9943566 L89.9206815,24.2998778 C90.0643188,21.1190647 88.8743576,18.0225559 86.637547,15.7565281 C84.562861,13.5626728 81.6319002,12.3867806 78.6162186,12.5383963 C75.7397661,12.4131865 72.9077115,13.280704 70.5948902,14.9954969 C68.4351337,16.5844613 66.9885722,18.9605447 66.5687254,21.6087676 L71.8799428,21.6087676 C72.1997078,20.251433 73.0270409,19.068046 74.1920375,18.3016323 C75.4910926,17.4704484 77.019606,17.0710818 78.5592163,17.1605855 C80.3053953,17.028822 82.0104111,17.7339874 83.1534044,19.0606633 C84.4887848,20.6035041 85.1564526,22.6137023 85.0094804,24.6488921 L85.0094804,25.5269281 L75.3580852,25.5269281 C72.5554399,25.3750878 69.7902704,26.2259091 67.5577659,27.9270263 C65.7235946,29.5640771 64.6748559,31.9058107 64.6748559,34.3642899 C64.6748559,36.822769 65.7235946,39.1645026 67.5577659,40.8015534 C69.7507343,42.490704 72.4745364,43.3417813 75.2390804,43.2016517 C77.2683226,43.2152198 79.2760917,42.7858855 81.1223212,41.9436002 C82.628155,41.2473037 83.9693368,40.2397984 85.0574823,38.9874792 C85.9405185,41.1395673 88.1826103,42.42662 91.2087342,42.42662 L93.427825,42.42662 L93.4568262,37.3794133 L91.8077587,37.3794133 Z M80.555298,37.4964181 C78.9685189,38.2487394 77.2277059,38.6193 75.4720899,38.5784624 C73.9718651,38.6748589 72.4829541,38.2626426 71.2459169,37.4084145 C70.2965247,36.5934139 69.7526717,35.402795 69.7582115,34.1515795 C69.7638364,32.9003639 70.3182915,31.7146452 71.2749181,30.9081484 C72.5241696,30.057554 74.0205643,29.6459927 75.5290922,29.7381005 L85.0094804,29.7381005 L85.0094804,30.0891148 C85.0354017,31.6288523 84.640527,33.1464575 83.8674336,34.4782945 C83.0835801,35.7876423 81.9316651,36.837304 80.555298,37.4964181 L80.555298,37.4964181 Z" id="Shape" fill="#01383F"></path>
                <path d="M23.0879452,2.29297684 L17.8247298,2.29297684 L7.10571827e-15,42.4466208 L5.75423558,42.4466208 L9.84040288,33.2462441 L31.0712721,33.2462441 L35.1564393,42.4466208 L40.911675,42.4466208 L23.0879452,2.29297684 Z M11.96749,28.4500477 L20.4558375,9.33226503 L28.9391848,28.4500477 L11.96749,28.4500477 Z" id="Shape" fill="#01383F"></path>
                <path d="M140.997773,14.3204693 C140.808101,13.7339489 140.323695,13.2905745 139.72272,13.1534215 L139.72272,13.1534215 C136.455151,12.3914175 133.036756,12.5928878 129.881317,13.7334452 L129.908319,13.8074483 L129.94732,13.9184528 L129.94732,13.9184528 L130.008323,14.1044604 L130.069325,14.2914681 L130.069325,14.2974683 L130.19433,14.6824841 L130.19433,14.6824841 C130.273334,14.9384946 130.348337,15.1965051 130.42034,15.4535156 C130.510343,15.7725287 130.595347,16.0915418 130.67235,16.4105548 L130.67235,16.4105548 L130.714352,16.5945624 L130.766354,16.8255718 L130.766354,16.8255718 L130.830356,17.1085834 C132.418061,16.5033635 134.102418,16.1912949 135.80156,16.1875457 C136.316804,16.1876707 136.831635,16.2167175 137.343623,16.2745493 C137.537631,16.2965502 137.732306,16.3225512 137.927647,16.3525525 C138.301301,17.7920137 138.488177,19.2735726 138.48367,20.7607329 C138.477191,24.0801778 137.534378,27.3304567 135.763558,30.1381168 C136.523118,29.0533327 137.17776,27.8987515 137.718638,26.6899757 C137.17776,27.8987515 136.523118,29.0533327 135.763558,30.1381168 C135.487547,30.5774682 135.192202,31.0084858 134.877522,31.4311698 C134.652513,31.7311821 134.416503,32.023194 134.169493,32.3072057 C132.488493,34.1898656 130.457806,35.7280801 128.190248,36.8363911 C128.012908,36.9250614 127.834567,37.0117316 127.655226,37.0964017 L127.655226,37.0964017 C126.230751,39.98113 123.521638,42.0185314 120.354927,42.5866265 C120.243923,42.6066273 120.132918,42.622628 120.020914,42.6386286 C126.980175,42.2719754 133.431633,38.8822204 137.681637,33.3592487 C141.856041,27.9468463 143.096423,20.8254996 140.997773,14.3204693 L140.997773,14.3204693 Z" id="Path" fill="url(#linearGradient-1)"></path>
                <path d="M109.442481,37.2824093 C108.412966,36.814172 107.420417,36.2685875 106.473359,35.6503425 C106.160346,35.4503343 105.854334,35.2333255 105.554322,35.0143165 C105.378314,34.8849779 105.204974,34.7516391 105.0343,34.6143001 C103.852589,33.6974932 102.796207,32.6296797 101.892172,31.4381701 C101.576159,31.0154861 101.28048,30.5838018 101.005135,30.1431171 C100.530517,29.4677608 100.096403,28.7648294 99.705082,28.0380309 C100.096403,28.7648294 100.530517,29.4677608 101.005135,30.1431171 C99.2303399,27.3360852 98.2846532,24.0847673 98.2770236,20.7637331 C98.2716785,19.2765847 98.4582259,17.7949611 98.8320463,16.3555526 C99.1090576,16.3125508 99.3850689,16.2795495 99.6620803,16.2555485 L99.8300872,16.2405479 C100.269438,16.2045464 100.70779,16.1892124 101.145141,16.194546 L101.145141,16.194546 C102.224655,16.2108616 103.298597,16.3528233 104.345272,16.6175633 C104.54528,16.6675653 104.737288,16.7175674 104.932296,16.78057 C105.178306,16.853573 105.423316,16.9325762 105.667326,17.0195798 C105.821332,17.0742487 105.974672,17.1315843 106.127345,17.1915868 L106.127345,17.1915868 L106.152346,17.0855825 L106.211348,16.8245718 L106.291352,16.4735574 L106.306352,16.4085547 L106.306352,16.4085547 C106.445358,15.8385314 106.606365,15.2655079 106.781372,14.6964847 L106.781372,14.6964847 L106.781372,14.6964847 L106.781372,14.6834841 L106.781372,14.6834841 L106.909377,14.2914681 L107.030382,13.9194528 L107.035382,13.9194528 C107.044383,13.8934518 107.053383,13.8674507 107.063383,13.8414496 L107.073384,13.8134485 C103.8683,12.6134575 100.380016,12.3876549 97.0469732,13.1644219 L97.0469732,13.1644219 C96.445713,13.3014453 95.9609464,13.7448015 95.770921,14.3314697 C93.6698131,20.8369119 94.9083437,27.9598654 99.0820565,33.3742493 C103.393384,38.9746316 109.962286,42.379725 117.023791,42.6746301 L117.452809,42.696631 C114.068038,42.2833265 111.08792,40.2690495 109.442481,37.2824093 Z" id="Path" fill="url(#linearGradient-2)"></path>
                <path d="M110.349518,15.3375109 C111.134987,12.878012 112.280828,10.5485834 113.749657,8.4252279 C114.991296,6.49437605 116.603443,4.82886448 118.492851,3.52502728 C120.381796,4.82941162 121.993845,6.49482159 123.236045,8.4252279 C124.694771,10.5360389 125.834398,12.8503382 126.618184,15.2935091 C127.654687,14.6719495 128.748404,14.1512118 129.884318,13.7384454 L129.884318,13.7384454 C127.210208,5.98812812 121.809987,0.624908545 118.94887,0.0478849214 C118.647873,-0.0159616405 118.33683,-0.0159616405 118.035833,0.0478849214 C116.553772,0.328896426 114.55069,1.80795698 112.569609,4.10405099 C110.148804,6.96832912 108.285634,10.2605048 107.076384,13.8104484 C108.210701,14.2360501 109.301713,14.7691658 110.334517,15.4025136 L110.349518,15.3375109 Z" id="Path" fill="url(#linearGradient-3)"></path>
                <path d="M126.615184,15.2975093 L126.634185,15.3545116 C126.895442,16.1791629 127.114403,17.0166217 127.290211,17.8636143 L127.290211,17.8636143 C127.326213,18.0382881 127.359548,18.2132953 127.390216,18.3886358 C127.420883,18.5639763 127.451551,18.7386501 127.482219,18.9126573 C127.829233,18.6746475 128.182248,18.4526384 128.540263,18.24563 C128.660267,18.1756271 128.780272,18.1076243 128.901277,18.0456218 C129.048283,17.9656185 129.195289,17.8876153 129.344296,17.8126122 C129.4663,17.7506097 129.589306,17.6896072 129.713311,17.6306048 C130.083326,17.4545976 130.457341,17.2942577 130.835357,17.1495851 L130.771354,16.8645734 L130.771354,16.8645734 L130.719352,16.6315639 L130.67735,16.4455563 L130.67735,16.4455563 C130.600347,16.1245431 130.515343,15.8025299 130.42534,15.4805168 C130.353337,15.2215061 130.278334,14.9614955 130.199331,14.7024849 L130.199331,14.7024849 L130.074325,14.3154691 L130.074325,14.3084688 L130.013323,14.1204611 L129.95232,13.9324534 L129.95232,13.9324534 L129.913319,13.8204488 L129.886318,13.7464458 C128.748834,14.1576388 127.653436,14.6770407 126.615184,15.2975093 L126.615184,15.2975093 Z" id="Path" fill="#2B8C17"></path>
                <path d="M106.785372,14.6894844 C106.607365,15.2695081 106.446358,15.8515319 106.306352,16.4315557 L106.306352,16.4315557 L106.291352,16.4965583 L106.211348,16.8505728 L106.152346,17.1135836 L106.127345,17.220588 L106.127345,17.220588 L106.355354,17.3155919 C106.622032,17.4269298 106.888709,17.5466013 107.155387,17.6746066 C107.964715,18.0664766 108.740372,18.5243783 109.474482,19.0436626 C109.504483,18.856655 109.537485,18.6686473 109.574486,18.4806396 C109.612488,18.270631 109.652489,18.0596223 109.696491,17.8496137 L109.696491,17.8496137 C109.740493,17.6406052 109.786495,17.4335967 109.834497,17.2265882 C109.959835,16.6932331 110.100841,16.1718784 110.257514,15.6625242 C110.283515,15.5755206 110.308516,15.4885171 110.336517,15.4025136 C109.303713,14.7691658 108.212702,14.2360501 107.078384,13.8104484 L107.068384,13.8384495 C107.058383,13.8654506 107.049383,13.8914517 107.040382,13.9184528 L107.035382,13.9184528 L106.914377,14.2944682 L106.787372,14.6864842 L106.787372,14.6864842 L106.785372,14.6894844 Z" id="Path" fill="#EF0B06"></path>
                <path d="M116.407766,39.0384812 C116.050762,38.8962507 115.709843,38.7165726 115.390724,38.5024593 L115.301721,38.4384567 C115.109523,38.2999677 114.92831,38.1468393 114.759698,37.9804379 L114.734697,37.957437 C114.520689,37.7784297 114.31468,37.590422 114.121672,37.3984141 L114.093671,37.372413 C113.050134,36.3002625 112.180905,35.0713297 111.517566,33.7302639 C111.36756,33.4369186 111.223887,33.1369063 111.086548,32.8302271 C110.949209,32.5235478 110.81887,32.2072016 110.695532,31.8811882 L110.695532,31.8811882 C110.621529,31.6871803 110.550526,31.4921723 110.481523,31.2941642 C110.104388,30.2019523 109.809224,29.0831379 109.598487,27.9470271 C109.331674,26.517726 109.184823,25.0686201 109.159469,23.6148498 C109.147469,22.9414889 109.160136,22.2641278 109.197471,21.5827666 C109.221472,21.1560824 109.25714,20.7263982 109.304475,20.2937138 C109.350477,19.8796969 109.404479,19.4636798 109.472482,19.0486628 C108.738623,18.5287006 107.962937,18.0704471 107.153387,17.6786067 C106.886709,17.5506015 106.620032,17.4309299 106.353354,17.319592 L106.125345,17.2245882 C105.868088,18.4311924 105.691689,19.6536283 105.597323,20.883738 C105.584323,21.056745 105.572322,21.2297521 105.563322,21.4017592 C105.548321,21.66577 105.538321,21.9287808 105.530321,22.1917915 C105.530321,22.2497939 105.530321,22.3067962 105.530321,22.3647986 C105.522987,22.6228092 105.519653,22.880153 105.520237,23.1368302 C105.520237,23.1728317 105.520237,23.2088332 105.520237,23.2448346 C105.520237,23.4808443 105.520237,23.7148539 105.531321,23.9448633 C105.531321,23.9928653 105.531321,24.0448674 105.531321,24.0878691 C105.539321,24.3438796 105.551321,24.59789 105.565322,24.8519004 L105.574322,24.9929062 C105.58899,25.2355828 105.60699,25.4775927 105.628325,25.7189359 L105.633325,25.7819385 C105.656659,26.0399491 105.683327,26.2969596 105.713328,26.5529701 L105.713328,26.5529701 L105.729329,26.6889756 C105.791331,27.2089969 105.867001,27.7233513 105.956338,28.2320388 L105.975339,28.3320429 C106.021341,28.5880534 106.070343,28.8430638 106.122345,29.0950741 L106.131345,29.1370759 C106.184347,29.3880861 106.24035,29.6370963 106.300352,29.8851065 L106.310352,29.9311084 C106.372355,30.1851188 106.436358,30.4361291 106.50536,30.6861393 L106.521361,30.7461417 C106.6607,31.2494957 106.812706,31.7431826 106.97738,32.2272024 L106.997381,32.2832047 C107.165387,32.7712247 107.347062,33.2485775 107.542403,33.7152633 L107.555403,33.7472646 C107.654074,33.983941 107.756745,34.2172839 107.863416,34.4472933 C107.96342,34.6553018 108.063424,34.8603102 108.163428,35.0633185 C108.299434,35.3363297 108.44044,35.6063407 108.586446,35.8693515 L108.627447,35.9443546 C108.746452,36.1563632 108.869457,36.3653718 108.994462,36.5713802 L109.051465,36.663384 C109.119467,36.7723885 109.18947,36.8783928 109.258473,36.9853972 C109.321476,37.0143984 109.382478,37.0443996 109.445481,37.0724007 C109.445481,37.0724007 109.476482,37.1324032 109.534484,37.2354074 C111.730474,38.2382806 114.08179,38.8582407 116.486769,39.0684825 L116.407766,39.0384812 Z M108.668449,34.7113041 C108.678449,34.7553059 108.68945,34.7993077 108.69945,34.8443095 C108.68945,34.8003077 108.678449,34.7563059 108.668449,34.7123041 L108.668449,34.7113041 Z M108.760453,35.1113205 C108.774453,35.1643226 108.789454,35.2163248 108.803455,35.2693269 C108.789454,35.2133246 108.774453,35.1613225 108.760453,35.1083203 L108.760453,35.1113205 Z M108.867457,35.5023365 L108.919459,35.6683433 L108.867457,35.5023365 Z M108.990462,35.8853521 C109.009796,35.9426878 109.029797,35.9996902 109.050465,36.0563591 C109.029797,35.9976901 109.009796,35.9396877 108.990462,35.882352 L108.990462,35.8853521 Z M109.126468,36.2623676 C109.148469,36.32037 109.17147,36.3773723 109.195471,36.4343746 C109.17147,36.3743722 109.148469,36.3173698 109.126468,36.2593675 L109.126468,36.2623676 Z M109.277474,36.6313827 C109.302475,36.6893851 109.327476,36.7463874 109.353477,36.8043898 C109.327476,36.7433873 109.302475,36.6863849 109.277474,36.6283826 L109.277474,36.6313827 Z M109.441481,36.9923975 C109.469482,37.0503998 109.497483,37.1084022 109.526484,37.1654046 C109.497483,37.1054021 109.469482,37.0473997 109.442481,36.9893973 L109.441481,36.9923975 Z" id="Shape" fill="url(#linearGradient-4)"></path>
                <path d="M127.655226,36.8973936 L127.655226,36.8973936 C127.717229,36.8683924 127.777231,36.8383912 127.838234,36.8083899 C127.893236,36.7223864 127.948238,36.6373829 128.002241,36.5493793 C128.024241,36.5113778 128.047242,36.4743763 128.069243,36.4373747 C128.135246,36.3273702 128.198249,36.2143656 128.262251,36.1033611 C128.309253,36.0213577 128.357255,35.9423545 128.403257,35.8603511 L128.403257,35.8513508 C128.515262,35.6513426 128.624266,35.4463342 128.73027,35.2363256 L128.755271,35.1863235 C128.864276,34.9723148 128.96928,34.7563059 129.072284,34.5362969 L129.072284,34.5362969 C129.287627,34.0736113 129.487635,33.5982585 129.672309,33.1102385 L129.69231,33.0602365 C129.874317,32.5835503 130.043324,32.096197 130.199331,31.5981766 L130.215331,31.5451745 C130.292001,31.2991644 130.365004,31.0504875 130.43434,30.7991439 L130.447341,30.752142 C130.58668,30.248788 130.711018,29.7374338 130.820356,29.2180792 L130.841357,29.1180751 C130.894359,28.8620646 130.941361,28.604054 130.992363,28.3450434 L130.992363,28.3320429 C131.037698,28.0780325 131.0797,27.8226887 131.118368,27.5660115 L131.133369,27.4660075 C131.170037,27.2119971 131.203372,26.9569866 131.233373,26.7009761 L131.247373,26.5809712 C131.277375,26.3249607 131.304376,26.0689503 131.327377,25.8109397 L131.327377,25.7919389 C131.350378,25.5319283 131.369378,25.2709176 131.386379,25.0099069 L131.395379,24.8589007 C131.410047,24.6022235 131.421714,24.344213 131.430381,24.084869 L131.430381,23.9848649 C131.437381,23.7448551 131.441381,23.5048453 131.442381,23.2628354 C131.442381,23.2198336 131.442381,23.1768318 131.442381,23.13283 C131.442381,22.8758195 131.442381,22.618809 131.433381,22.3597984 C131.433381,22.3057962 131.433381,22.2507939 131.433381,22.1957917 C131.425381,21.9297808 131.41538,21.6637699 131.40038,21.3957589 C131.352378,20.5357237 131.261374,19.6666881 131.127369,18.7956525 C131.046699,18.2729644 130.951028,17.749943 130.840357,17.2265882 L130.840357,17.2265882 L130.821356,17.1425848 C130.44334,17.2865907 130.069325,17.4469306 129.69931,17.6236045 C129.575305,17.6826069 129.4523,17.7436094 129.330295,17.8056119 C129.181289,17.880615 129.030283,17.9586182 128.887277,18.0386215 C128.766272,18.1056242 128.646267,18.173627 128.526262,18.2386297 C128.169581,18.4459715 127.8169,18.6683139 127.468219,18.905657 C127.502887,19.1183324 127.536221,19.3310077 127.568223,19.5436831 C127.629559,19.9803676 127.678894,20.4160522 127.716229,20.8507366 C127.73723,21.0927465 127.75523,21.3327563 127.768231,21.5727662 C127.790232,21.9647822 127.803566,22.3557982 127.808233,22.7458142 C127.831451,24.4067986 127.697515,26.066256 127.408216,27.7020171 C127.237954,28.6691496 127.007497,29.6247129 126.718188,30.5631343 L126.226168,31.9061892 C126.165165,32.0661958 126.101163,32.2242023 126.03716,32.3822087 C126.018159,32.4262105 125.999159,32.4712124 125.981158,32.5152142 C125.932156,32.632219 125.881154,32.7472237 125.832152,32.8612283 C125.813151,32.9052301 125.79315,32.9492319 125.773149,32.9932337 C125.716147,33.121239 125.657145,33.2472441 125.598142,33.3722493 L125.572141,33.4272515 L125.563141,33.4452522 C125.488138,33.6002586 125.412135,33.7542649 125.333131,33.9062711 L125.333131,33.9062711 L125.333131,33.9062711 C125.30713,33.9572732 125.280129,34.0062752 125.253128,34.0552772 C125.199126,34.1552813 125.146124,34.2552854 125.091121,34.3552895 L125.038119,34.4502934 L125.038119,34.4502934 C124.964116,34.5836322 124.88878,34.7129708 124.81211,34.8383093 L124.787109,34.881311 L124.777109,34.8963117 C124.688105,35.0433177 124.598101,35.1863235 124.506097,35.3273293 L124.465096,35.3883318 C124.388093,35.5053366 124.309089,35.6203413 124.229086,35.734346 L124.159083,35.8343501 C124.07508,35.9503548 123.991076,36.0653595 123.905073,36.1773641 L123.872071,36.2213659 C123.776068,36.345371 123.678397,36.4670426 123.579059,36.5863808 C123.554058,36.615382 123.528057,36.6443832 123.503056,36.6743845 C123.427053,36.7643881 123.34905,36.8533918 123.271047,36.9403953 L123.184043,37.0403994 C123.084039,37.1504039 122.984035,37.2584084 122.875031,37.3624126 L122.875031,37.3624126 C122.802028,37.4344156 122.726025,37.5044184 122.650021,37.5754213 C122.574018,37.6464242 122.483015,37.7294276 122.397011,37.8044307 C122.311008,37.8794338 122.239005,37.9434364 122.158001,38.0104392 L122.136,38.03044 C122.102999,38.0614412 122.067998,38.0884423 122.035996,38.1184436 C121.935992,38.2124474 121.822988,38.300451 121.711983,38.3834544 C121.662981,38.4194559 121.611979,38.4574575 121.565977,38.4924589 C121.290744,38.677344 120.999186,38.8366802 120.694941,38.9684784 L120.673941,38.9774787 L120.622938,39.0004797 C120.594937,39.0144803 120.565936,39.0264807 120.537935,39.0384812 C122.966879,38.7953043 125.335331,38.1331528 127.538222,37.0814011 C127.572223,37.0163985 127.607224,36.9523958 127.638226,36.8813929 L127.655226,36.8973936 Z" id="Path" fill="url(#linearGradient-5)"></path>
                <path d="M124.305089,16.9015749 C124.174084,17.001579 124.044079,17.1125836 123.914073,17.220588 C123.803402,17.3132585 123.692397,17.4075956 123.58106,17.5035996 C123.523057,17.5536016 123.465055,17.6036037 123.407052,17.6576059 C123.219045,17.8236127 123.032037,17.9936196 122.84803,18.1676268 L122.748025,18.2606306 C122.534017,18.4653056 122.322008,18.6756476 122.111999,18.8916564 L122.071998,18.9326581 C121.841988,19.1706678 121.614979,19.4150112 121.39097,19.6656881 L121.39097,19.6656881 C120.172671,21.0634662 119.157323,22.6258764 118.374846,24.3068781 C119.652013,27.085044 120.225581,30.1349113 120.044915,33.1872417 L120.126918,33.1982421 L120.126918,33.1672409 C120.142919,32.8672286 120.16192,32.560216 120.185921,32.2562036 C120.255922,31.3171329 120.375762,30.3824442 120.544935,29.4560889 C120.714424,28.5282848 120.95276,27.6143879 121.257964,26.721977 C121.363969,26.4179645 121.479307,26.1179523 121.603979,25.8219401 C121.946425,24.9959678 122.369489,24.2057786 122.86703,23.4628436 C123.004369,23.2581685 123.148375,23.0561602 123.299048,22.8568187 C123.449054,22.6568106 123.607061,22.4568024 123.772067,22.2707948 C124.860178,20.9985335 126.107469,19.8715682 127.483219,18.9176575 C127.454551,18.7436503 127.423884,18.5689765 127.391216,18.393636 C127.358548,18.2182955 127.325213,18.0432883 127.291211,17.8686145 L127.291211,17.8686145 C127.115403,17.0216219 126.896442,16.1841631 126.635185,15.3595118 C125.817647,15.8029938 125.041216,16.3183828 124.31509,16.8995748 L124.305089,16.9015749 Z" id="Path" fill="url(#linearGradient-6)"></path>
                <path d="M112.157592,21.3517571 C112.441603,21.6451025 112.720282,21.9497816 112.993626,22.2657945 C113.176634,22.4778032 113.351641,22.6958122 113.516648,22.9188213 C113.681654,23.1418304 113.839661,23.3688397 113.988667,23.6008492 C114.513059,24.4217811 114.948851,25.2960456 115.28872,26.208956 C115.422059,26.5649706 115.544064,26.925652 115.654735,27.2910003 C115.76474,27.6560152 115.862744,28.0260304 115.954747,28.3970456 C115.998749,28.5830532 116.040084,28.7697275 116.078752,28.9570685 C116.321367,30.1561666 116.48241,31.3703334 116.560772,32.5912173 C116.567696,29.7319922 117.188373,26.9075743 118.380847,24.3088782 C117.457244,22.3321993 116.217983,20.5190753 114.711696,18.9406584 C114.55769,18.7819853 114.402684,18.6259789 114.246677,18.4726393 C114.090671,18.3192996 113.932998,18.1686268 113.773658,18.0206207 C113.500313,17.767277 113.223636,17.5229337 112.943624,17.2875907 C112.123267,16.594366 111.251385,15.9645247 110.335517,15.4035136 C110.307516,15.4895171 110.282515,15.5765207 110.256514,15.6635242 C110.100508,16.1755452 109.959502,16.6968999 109.833497,17.2275883 C109.785495,17.4345968 109.739493,17.6416052 109.695491,17.8506138 L109.695491,17.8506138 C109.651489,18.0606224 109.611488,18.271631 109.573486,18.4816396 C109.539485,18.6696473 109.506483,18.857655 109.473482,19.0456627 C110.437781,19.7294379 111.336359,20.5014644 112.157592,21.3517571 Z" id="Path" fill="url(#linearGradient-7)"></path>
                <path d="M127.553222,37.0924016 C125.350332,38.1441532 122.98188,38.8063048 120.552936,39.0494817 C120.41693,39.0634823 120.279924,39.0764828 120.142919,39.0874832 L120.142919,39.2124884 L120.142919,39.0874832 C119.564895,39.1344852 118.979871,39.1604862 118.389847,39.1604862 C117.799823,39.1604862 117.203798,39.1334851 116.620775,39.0854832 L116.492769,39.0744827 C114.087791,38.8642409 111.736474,38.2442808 109.540485,37.2414077 L109.376478,37.1664046 C109.402479,37.2044062 109.42648,37.2444078 109.451481,37.2824093 C111.099438,40.262616 114.077266,42.2711434 117.457809,42.6826304 L117.464809,42.6826304 L117.936828,42.7076315 C118.148837,42.7166318 118.376846,42.7166318 118.614856,42.7076315 C118.814864,42.7029646 119.018206,42.6946309 119.224881,42.6826304 L119.749903,42.6556293 C119.843907,42.6556293 119.93691,42.6426288 120.030914,42.6366286 C120.142919,42.6206279 120.253923,42.6046272 120.364928,42.5846264 C123.531638,42.0165313 126.240751,39.97913 127.665227,37.0944016 L127.665227,37.0944016 C127.683227,37.0674005 127.700228,37.0393994 127.717229,37.0123983 C127.656226,37.0383994 127.605224,37.0684006 127.553222,37.0924016 Z M110.420521,38.6194641 C110.610529,38.8781413 110.810537,39.1271515 111.020545,39.3664947 C110.811203,39.1278182 110.611195,38.878808 110.420521,38.6194641 Z M113.426644,41.3385754 C114.292015,41.8506829 115.229073,42.2305621 116.206758,42.4656216 C115.228935,42.2309926 114.291814,41.851088 113.426644,41.3385754 Z" id="Shape" fill="#DD2112"></path>
                <path d="M116.661776,35.0693187 C116.661776,35.0413176 116.661776,35.0133164 116.654776,34.9843153 C116.676777,36.4553755 116.637775,37.8504326 116.615774,39.0844831 C117.198798,39.1324851 117.788822,39.1594862 118.384847,39.1594862 C118.980871,39.1594862 119.559895,39.1334851 120.137919,39.0864832 C120.130918,38.8044717 120.122918,38.5164599 120.115918,38.225448 C120.115918,38.056441 120.106917,37.8884342 120.102917,37.7174272 C120.102917,37.6004224 120.102917,37.4824175 120.094917,37.3644127 C120.094917,37.2164066 120.088917,37.0644004 120.086916,36.9183944 C120.086916,36.7893892 120.086916,36.6613839 120.080916,36.5313786 C120.074916,36.4013733 120.080916,36.2453669 120.080916,36.101361 C120.080916,35.9573551 120.080916,35.8343501 120.080916,35.7013446 C120.080916,35.5683392 120.080916,35.4143329 120.080916,35.270327 C120.080916,35.1263211 120.080916,34.9993159 120.080916,34.8623103 C120.080916,34.710304 120.085916,34.5562977 120.088917,34.4032915 C120.088917,34.2752862 120.088917,34.147281 120.097917,34.0182757 C120.105917,33.7502647 120.116918,33.4822538 120.129918,33.2122427 L120.129918,33.2012423 L120.047915,33.1902418 C120.228581,30.1379115 119.655013,27.0880441 118.377847,24.3098782 C117.185372,26.9085744 116.564696,29.7329923 116.557772,32.5922173 C116.614774,33.4032505 116.644776,34.2052834 116.657776,34.9853153 C116.657776,35.0133164 116.659776,35.0383175 116.661776,35.0693187 Z" id="Path" fill="url(#linearGradient-8)"></path>
            </g>
        </g>
    </g>
</svg>